<svg width="40" height="41" viewBox="0 0 40 41" fill="none" xmlns="http://www.w3.org/2000/svg">
<circle cx="20" cy="20.5" r="20" fill="#FFB81A"/>
<path d="M30 23.6546C29.999 22.8217 29.6617 22.0232 29.062 21.4343C28.4624 20.8454 27.6493 20.5141 26.8012 20.5132C25.9531 20.5141 25.1401 20.8454 24.5404 21.4343C23.9407 22.0232 23.6034 22.8217 23.6025 23.6546C23.6036 24.3838 23.8626 25.09 24.3353 25.6523C24.808 26.2147 25.4649 26.5984 26.1937 26.7377V28.7658C26.1925 29.7932 25.7764 30.7781 25.0367 31.5045C24.2969 32.2309 23.294 32.6394 22.2479 32.6405C21.2018 32.6393 20.199 32.2307 19.4593 31.5044C18.7195 30.778 18.3034 29.7931 18.3021 28.7658V20.9304C19.9658 20.6574 21.4774 19.8145 22.5685 18.5512C23.6596 17.2878 24.2598 15.6858 24.2626 14.0292V8H20.8573C20.7775 8 20.6985 8.01544 20.6249 8.04543C20.5512 8.07542 20.4842 8.11936 20.4279 8.17477C20.3715 8.23018 20.3268 8.29596 20.2963 8.36834C20.2658 8.44073 20.2501 8.5183 20.2502 8.59663C20.2502 8.7548 20.3142 8.90648 20.428 9.01836C20.5419 9.13024 20.6962 9.19315 20.8573 9.19327H23.0476V14.0292C23.0459 15.5697 22.422 17.0467 21.3129 18.136C20.2037 19.2253 18.6998 19.838 17.1311 19.8396C15.5626 19.8379 14.0588 19.2251 12.9497 18.1358C11.8406 17.0465 11.2168 15.5696 11.2151 14.0292V9.19327H12.7902C12.9513 9.19327 13.1058 9.13041 13.2198 9.01852C13.3337 8.90663 13.3977 8.75487 13.3977 8.59663C13.3978 8.51826 13.3821 8.44065 13.3516 8.36824C13.3211 8.29582 13.2763 8.23002 13.2199 8.17461C13.1635 8.11919 13.0965 8.07525 13.0227 8.04529C12.949 8.01533 12.87 7.99994 12.7902 8H10V14.0292C10.0023 15.8783 10.7484 17.6517 12.0759 18.9631C13.4033 20.2746 15.2046 21.0178 17.0874 21.0311V28.7654C17.089 30.109 17.6332 31.3972 18.6006 32.3473C19.5681 33.2974 20.8797 33.8318 22.2479 33.8333C23.6161 33.8319 24.9279 33.2975 25.8954 32.3474C26.863 31.3973 27.4072 30.1091 27.4088 28.7654V26.7373C28.1376 26.598 28.7945 26.2144 29.2671 25.6521C29.7398 25.0898 29.9988 24.3837 30 23.6546ZM26.8012 25.6027C26.2753 25.6022 25.7711 25.3967 25.3992 25.0315C25.0273 24.6663 24.8181 24.1711 24.8175 23.6546C24.8181 23.1381 25.0273 22.6429 25.3992 22.2777C25.7711 21.9125 26.2753 21.707 26.8012 21.7065C27.3272 21.7069 27.8316 21.9123 28.2036 22.2775C28.5756 22.6428 28.7848 23.138 28.7854 23.6546C28.7848 24.1712 28.5756 24.6664 28.2036 25.0317C27.8316 25.3969 27.3272 25.6023 26.8012 25.6027Z" fill="white"/>
</svg>
