<svg preserveAspectRatio="none" overflow="visible" style="display: block;" width="23.039" height="24.9638" viewBox="0 0 23.039 24.9638" fill="none" xmlns="http://www.w3.org/2000/svg">
<path id="Vector" d="M23.0386 9.49141C23.0458 9.09825 22.9565 8.70933 22.7787 8.35861C22.6008 8.00789 22.3399 7.70605 22.0185 7.47946C19.8457 5.78249 15.3327 2.34312 12.8189 0.432369C12.4428 0.147885 11.9831 -0.00410775 11.5115 8.44502e-05C11.04 0.00427665 10.583 0.164424 10.212 0.45555L10.1292 0.519865C5.47814 4.13327 2.31078 6.54253 1.6562 6.96488C0.486575 7.71925 -0.0237473 8.73328 0.000846559 10.2529C0.041521 12.6555 0.0344188 15.1026 0.0282703 17.4688C0.0251172 18.6294 0.0236827 19.7901 0.023998 20.9507C0.0276068 21.9976 0.444836 23.0007 1.18474 23.7413C1.92465 24.4819 2.92729 24.9001 3.97417 24.9047C4.85104 24.9047 5.7279 24.9203 6.60523 24.934C7.5398 24.9486 8.48761 24.9638 9.44299 24.9638C10.7011 24.9638 11.9681 24.9378 13.2233 24.8503C14.2835 24.7983 15.3459 24.8085 16.4049 24.881C17.4541 24.9506 18.5061 24.9637 19.5567 24.9203C21.6609 24.7968 22.9828 23.5095 23.0093 21.5623C23.0363 19.3692 23.0339 17.1411 23.0311 14.9881C23.0254 13.1521 23.023 11.3218 23.0386 9.49141ZM13.1339 23.5747C11.6257 23.6792 10.0867 23.6915 8.56329 23.6788C8.56329 22.8079 8.56467 21.9369 8.5675 21.0657C8.57365 18.7226 8.57982 16.2997 8.54718 13.915C8.50548 13.6154 8.5737 13.3108 8.73921 13.0575C8.98127 12.9145 9.26502 12.8588 9.54321 12.8996C10.3581 12.9374 11.1797 12.9289 11.9738 12.9209C12.4212 12.9157 12.8682 12.9104 13.3151 12.9152C13.6726 12.8841 14.0328 12.9196 14.3774 13.0197C14.477 13.3621 14.5112 13.7203 14.4781 14.0753C14.4854 16.3884 14.4867 18.7017 14.4823 21.0151V23.5392C14.0354 23.5364 13.5861 23.543 13.1339 23.5747ZM21.729 21.541C21.7077 23.255 20.3102 23.5932 19.4811 23.6419C18.4762 23.6828 17.4698 23.6694 16.4664 23.6017C16.2328 23.5903 15.9963 23.579 15.7598 23.569V21.0151C15.7598 18.7004 15.7586 16.3858 15.756 14.0711C15.7504 12.0847 15.319 11.6533 13.326 11.6373C12.8714 11.6349 12.4165 11.6373 11.9615 11.6434C11.1853 11.6514 10.3823 11.6599 9.60331 11.6235C9.29126 11.5815 8.97385 11.6058 8.67183 11.6948C8.36981 11.7838 8.08994 11.9355 7.8505 12.14C7.63407 12.3817 7.47058 12.666 7.37056 12.9746C7.27054 13.2832 7.23618 13.6094 7.2697 13.932C7.30233 16.3068 7.29623 18.7241 7.29008 21.0619C7.28819 21.9293 7.28675 22.7964 7.28581 23.6632L6.62365 23.6542C5.74064 23.64 4.85764 23.6258 3.9751 23.6244C3.2658 23.6211 2.58652 23.3377 2.08528 22.8358C1.58404 22.334 1.30148 21.6544 1.29912 20.9451C1.29659 19.7866 1.29797 18.6279 1.30333 17.4688C1.30995 15.0964 1.31658 12.6447 1.27591 10.2283C1.25746 9.14381 1.5479 8.5493 2.34578 8.03472C3.29595 7.41988 8.11917 3.69297 10.9115 1.52398L11.0061 1.45112C11.154 1.33612 11.3361 1.27371 11.5235 1.27376C11.7183 1.2747 11.9075 1.3397 12.0618 1.45871C14.5561 3.35622 19.0639 6.79226 21.2314 8.4845C21.3982 8.58987 21.5347 8.73687 21.6273 8.91104C21.72 9.08521 21.7656 9.28052 21.7598 9.4777C21.7446 11.3118 21.747 13.1464 21.7494 14.981C21.7532 17.1349 21.756 19.3588 21.729 21.5429V21.541Z" fill="white"/>
</svg>
