<svg preserveAspectRatio="none" width="100%" height="100%" overflow="visible" style="display: block;" viewBox="0 0 288 210" fill="none" xmlns="http://www.w3.org/2000/svg">
<g id="QUE_NO_CUBRE">
<path id="Vector" d="M192.002 61.8124C207.533 61.8124 220.124 49.2257 220.124 33.6992C220.124 18.1727 207.533 5.58594 192.002 5.58594C176.47 5.58594 163.879 18.1727 163.879 33.6992C163.879 49.2257 176.47 61.8124 192.002 61.8124Z" fill="var(--fill-0, #40A92C)"/>
<path id="Vector_2" d="M192.001 52.2213C191.078 52.2207 190.157 52.1531 189.244 52.0189C189.186 51.9934 189.138 51.9493 189.107 51.8936C189.076 51.8378 189.065 51.7735 189.074 51.7106C189.084 51.6477 189.114 51.5896 189.16 51.5455C189.206 51.5014 189.265 51.4737 189.328 51.4666C190.213 51.5975 191.106 51.6632 192.001 51.6632H192.128C192.167 51.6607 192.206 51.6664 192.242 51.68C192.278 51.6937 192.311 51.7149 192.338 51.7423C192.366 51.7696 192.387 51.8025 192.401 51.8388C192.414 51.875 192.42 51.9138 192.417 51.9524C192.417 52.0291 192.387 52.1026 192.333 52.1568C192.278 52.2111 192.205 52.2415 192.128 52.2415L192.001 52.2213ZM194.971 51.9813C194.91 51.9691 194.853 51.9369 194.811 51.8898C194.769 51.8426 194.744 51.7831 194.739 51.7202C194.734 51.6573 194.75 51.5945 194.784 51.5414C194.818 51.4883 194.869 51.4479 194.928 51.4262C195.853 51.2751 196.764 51.0508 197.653 50.7553C197.723 50.7348 197.799 50.7419 197.865 50.7752C197.93 50.8085 197.981 50.8655 198.006 50.9346C198.025 51.0044 198.018 51.0792 197.986 51.144C197.953 51.2088 197.897 51.2589 197.829 51.2845C196.912 51.5897 195.972 51.8208 195.018 51.9755L194.971 51.9813ZM186.508 51.3799C186.481 51.3843 186.452 51.3843 186.424 51.3799C185.502 51.0882 184.604 50.7257 183.737 50.2956C183.69 50.2535 183.657 50.1968 183.645 50.1343C183.633 50.0718 183.641 50.0071 183.67 49.9501C183.698 49.8931 183.744 49.847 183.802 49.819C183.859 49.7911 183.924 49.7828 183.986 49.7954C184.825 50.213 185.696 50.5649 186.589 50.8479C186.644 50.8754 186.688 50.9194 186.716 50.9737C186.744 51.028 186.754 51.0898 186.745 51.1501C186.736 51.2105 186.707 51.2663 186.664 51.3097C186.621 51.3531 186.566 51.3817 186.505 51.3915L186.508 51.3799ZM200.369 50.1944C200.31 50.1873 200.255 50.1624 200.211 50.1233C200.167 50.0842 200.136 50.0326 200.123 49.9754C200.109 49.9182 200.113 49.8581 200.134 49.8032C200.155 49.7483 200.193 49.7012 200.241 49.6682C201.074 49.2382 201.872 48.7432 202.628 48.1878C202.687 48.1647 202.752 48.162 202.813 48.1799C202.875 48.1978 202.928 48.2353 202.966 48.2868C203.003 48.3382 203.023 48.4006 203.021 48.4642C203.02 48.5279 202.997 48.5893 202.957 48.6388C202.179 49.2098 201.357 49.7193 200.499 50.1626C200.458 50.1827 200.414 50.1935 200.369 50.1944ZM181.418 48.8441C181.36 48.8434 181.303 48.8253 181.256 48.7921C180.469 48.2299 179.726 47.6083 179.034 46.9329C179.002 46.8782 178.989 46.8143 178.997 46.7513C179.004 46.6882 179.032 46.6294 179.077 46.584C179.121 46.5386 179.18 46.5091 179.242 46.5C179.305 46.491 179.369 46.5029 179.425 46.5339C180.096 47.1895 180.816 47.7927 181.58 48.3381C181.637 48.3828 181.676 48.4476 181.687 48.5194C181.699 48.5912 181.683 48.6648 181.643 48.7256C181.617 48.7612 181.583 48.7905 181.544 48.811C181.505 48.8316 181.462 48.8429 181.418 48.8441ZM204.953 46.8201C204.916 46.8205 204.88 46.8136 204.846 46.7997C204.813 46.7858 204.782 46.7652 204.756 46.7392C204.707 46.6857 204.679 46.6155 204.679 46.5426C204.679 46.4696 204.707 46.3994 204.756 46.3459C205.417 45.68 206.026 44.9637 206.576 44.2034C206.625 44.1634 206.687 44.1409 206.75 44.1394C206.814 44.1379 206.876 44.1575 206.928 44.1951C206.979 44.2326 207.017 44.2861 207.035 44.3472C207.053 44.4083 207.05 44.4736 207.027 44.533C206.46 45.3149 205.834 46.0515 205.153 46.7363C205.101 46.7933 205.03 46.8276 204.953 46.8317V46.8201ZM177.354 44.854C177.311 44.853 177.268 44.8424 177.23 44.8228C177.191 44.8033 177.158 44.7754 177.131 44.7412C176.554 43.9669 176.038 43.1491 175.587 42.2951C175.573 42.233 175.579 42.1679 175.606 42.11C175.633 42.0522 175.678 42.0047 175.734 41.9751C175.79 41.9454 175.855 41.9352 175.918 41.946C175.981 41.9568 176.038 41.988 176.081 42.0348C176.517 42.864 177.017 43.6577 177.577 44.4087C177.619 44.4686 177.636 44.5422 177.626 44.6147C177.616 44.6871 177.579 44.753 177.522 44.799C177.474 44.8385 177.416 44.8618 177.354 44.8655V44.854ZM208.285 42.2141C208.241 42.2134 208.197 42.2025 208.158 42.1823C208.094 42.1468 208.047 42.0887 208.024 42.0195C208.002 41.9504 208.006 41.8754 208.036 41.8093C208.461 40.971 208.82 40.101 209.109 39.207C209.111 39.1623 209.123 39.1185 209.144 39.0791C209.165 39.0397 209.195 39.0058 209.232 38.9801C209.269 38.9543 209.311 38.9374 209.355 38.9307C209.399 38.924 209.445 38.9277 209.487 38.9414C209.53 38.9551 209.569 38.9786 209.601 39.0099C209.633 39.0412 209.657 39.0795 209.672 39.1218C209.686 39.1641 209.691 39.2092 209.685 39.2536C209.68 39.298 209.664 39.3404 209.639 39.3776C209.342 40.2979 208.972 41.1932 208.534 42.0551C208.512 42.1036 208.477 42.1453 208.433 42.1754C208.39 42.2055 208.338 42.2229 208.285 42.2257V42.2141ZM174.699 39.8374C174.641 39.8356 174.585 39.8164 174.538 39.7824C174.491 39.7484 174.455 39.701 174.436 39.6465C174.126 38.7314 173.888 37.7937 173.724 36.8419C173.705 36.8016 173.696 36.7575 173.696 36.713C173.697 36.6685 173.708 36.6248 173.729 36.5853C173.75 36.5458 173.779 36.5116 173.815 36.4853C173.851 36.459 173.892 36.4414 173.936 36.4338C173.98 36.4261 174.025 36.4287 174.068 36.4414C174.11 36.454 174.15 36.4763 174.182 36.5066C174.215 36.5369 174.24 36.5742 174.256 36.6158C174.272 36.6574 174.278 36.7021 174.274 36.7464C174.433 37.67 174.664 38.5798 174.965 39.4673C174.986 39.5375 174.979 39.6129 174.946 39.6784C174.913 39.7438 174.857 39.7945 174.788 39.82C174.76 39.8316 174.729 39.8375 174.699 39.8374ZM210.026 36.8158H209.986C209.913 36.8024 209.848 36.7616 209.805 36.702C209.761 36.6423 209.742 36.5682 209.751 36.4949C209.896 35.569 209.969 34.6332 209.968 33.696C209.968 33.5254 209.968 33.3519 209.968 33.1813C209.955 33.1387 209.951 33.0934 209.958 33.049C209.964 33.0047 209.981 32.9625 210.007 32.9258C210.033 32.8891 210.067 32.859 210.106 32.8377C210.146 32.8164 210.19 32.8046 210.235 32.8032C210.279 32.8018 210.324 32.8108 210.365 32.8296C210.405 32.8484 210.441 32.8764 210.469 32.9114C210.497 32.9464 210.517 32.9874 210.526 33.0313C210.536 33.0751 210.535 33.1205 210.524 33.164C210.524 33.3404 210.524 33.5196 210.524 33.6989C210.524 34.667 210.45 35.6337 210.301 36.5903C210.287 36.6517 210.254 36.707 210.206 36.7477C210.158 36.7884 210.098 36.8123 210.035 36.8158H210.026ZM173.738 34.2338C173.664 34.2339 173.593 34.2054 173.539 34.1543C173.485 34.1032 173.453 34.0333 173.449 33.9591C173.449 33.8724 173.449 33.7827 173.449 33.6931C173.45 32.8157 173.512 31.9394 173.634 31.0706C173.629 31.0265 173.633 30.9816 173.648 30.9396C173.662 30.8975 173.686 30.8594 173.718 30.8282C173.75 30.7969 173.788 30.7734 173.831 30.7595C173.873 30.7455 173.918 30.7415 173.962 30.7477C174.006 30.7539 174.048 30.7703 174.085 30.7954C174.121 30.8205 174.152 30.8537 174.173 30.8925C174.195 30.9313 174.208 30.9746 174.21 31.019C174.212 31.0635 174.204 31.1078 174.187 31.1487C174.068 31.9916 174.008 32.8418 174.007 33.6931C174.007 33.7798 174.007 33.8666 174.007 33.9504C174.008 34.0247 173.979 34.0961 173.928 34.15C173.877 34.2038 173.807 34.2359 173.733 34.2396L173.738 34.2338ZM209.945 30.608C209.878 30.6095 209.812 30.5875 209.76 30.5458C209.707 30.5041 209.67 30.4453 209.656 30.3795C209.485 29.4587 209.241 28.5528 208.927 27.6703C208.922 27.6068 208.938 27.5433 208.972 27.4898C209.007 27.4362 209.058 27.3956 209.118 27.3741C209.178 27.3527 209.244 27.3517 209.304 27.3713C209.365 27.3908 209.417 27.4299 209.454 27.4824C209.776 28.3934 210.028 29.3283 210.206 30.2783C210.218 30.3509 210.202 30.4255 210.161 30.4867C210.12 30.548 210.057 30.5913 209.986 30.608H209.945ZM174.548 28.6013C174.521 28.6055 174.494 28.6055 174.467 28.6013C174.398 28.5775 174.34 28.528 174.306 28.463C174.271 28.398 174.263 28.3224 174.282 28.2515C174.567 27.3281 174.923 26.4281 175.347 25.5596C175.381 25.4951 175.439 25.4462 175.508 25.4226C175.577 25.399 175.653 25.4024 175.72 25.4323C175.784 25.4669 175.833 25.5246 175.857 25.5938C175.88 25.663 175.877 25.7386 175.847 25.8053C175.436 26.6446 175.09 27.5146 174.814 28.4076C174.796 28.4642 174.761 28.5137 174.713 28.5494C174.665 28.5851 174.608 28.6053 174.548 28.6071V28.6013ZM208.042 25.2531C207.992 25.2523 207.943 25.2385 207.9 25.2132C207.857 25.1878 207.821 25.1518 207.796 25.1085C207.349 24.2852 206.837 23.4982 206.266 22.7549C206.231 22.7281 206.202 22.6933 206.182 22.6535C206.162 22.6136 206.151 22.5696 206.151 22.525C206.151 22.4804 206.161 22.4363 206.181 22.3963C206.2 22.3562 206.229 22.3213 206.264 22.2942C206.3 22.2671 206.341 22.2486 206.385 22.24C206.429 22.2315 206.474 22.2333 206.517 22.2451C206.56 22.257 206.6 22.2786 206.633 22.3084C206.666 22.3381 206.692 22.3752 206.709 22.4166C207.298 23.1824 207.826 23.9936 208.288 24.8425C208.321 24.9081 208.327 24.9838 208.306 25.0541C208.285 25.1245 208.239 25.1842 208.175 25.2213C208.135 25.2453 208.089 25.2583 208.042 25.2589V25.2531ZM177.05 23.4951C176.992 23.4944 176.936 23.4762 176.888 23.443C176.83 23.3987 176.791 23.3342 176.779 23.2624C176.767 23.1905 176.782 23.1167 176.822 23.0556C177.378 22.2655 177.994 21.5193 178.664 20.8234C178.686 20.7845 178.716 20.7511 178.752 20.7257C178.789 20.7003 178.83 20.6836 178.874 20.677C178.918 20.6703 178.963 20.6739 179.005 20.6873C179.048 20.7008 179.086 20.7239 179.118 20.7547C179.15 20.7855 179.175 20.8233 179.19 20.865C179.205 20.9068 179.21 20.9515 179.205 20.9956C179.2 21.0397 179.185 21.0821 179.161 21.1194C179.137 21.1568 179.104 21.1881 179.066 21.2109C178.413 21.8839 177.816 22.6081 177.279 23.3765C177.253 23.4137 177.219 23.4442 177.179 23.4658C177.14 23.4874 177.095 23.4994 177.05 23.5009V23.4951ZM204.58 20.7454C204.545 20.7455 204.509 20.7387 204.477 20.7253C204.444 20.7119 204.414 20.6922 204.389 20.6673C203.709 20.0224 202.979 19.4308 202.208 18.8977C202.167 18.8492 202.142 18.7884 202.139 18.7246C202.136 18.6609 202.154 18.5979 202.19 18.5455C202.227 18.493 202.279 18.454 202.34 18.4346C202.401 18.4151 202.466 18.4163 202.526 18.438C203.321 18.9888 204.072 19.5997 204.774 20.2654C204.809 20.3056 204.833 20.355 204.842 20.408C204.851 20.461 204.846 20.5155 204.825 20.5653C204.805 20.6152 204.772 20.6584 204.728 20.6902C204.685 20.722 204.634 20.7411 204.58 20.7454ZM180.998 19.4037C180.943 19.3983 180.89 19.3769 180.846 19.3421C180.803 19.3074 180.77 19.2608 180.753 19.2079C180.735 19.155 180.733 19.0982 180.747 19.0442C180.76 18.9902 180.79 18.9413 180.831 18.9035C181.602 18.321 182.417 17.799 183.269 17.3422C183.335 17.3105 183.41 17.3048 183.48 17.3262C183.549 17.3477 183.608 17.3947 183.645 17.4578C183.677 17.5232 183.683 17.5982 183.662 17.6678C183.641 17.7375 183.595 17.7967 183.532 17.8337C182.706 18.2772 181.915 18.7837 181.166 19.3488C181.119 19.3873 181.059 19.4087 180.998 19.4095V19.4037ZM199.903 17.5128C199.861 17.513 199.82 17.5041 199.781 17.4867C198.936 17.0799 198.06 16.7405 197.161 16.4718C197.107 16.4384 197.065 16.3882 197.043 16.3289C197.02 16.2695 197.018 16.2044 197.036 16.1436C197.054 16.0827 197.092 16.0295 197.143 15.9922C197.194 15.9549 197.257 15.9354 197.32 15.9369C198.247 16.214 199.15 16.5639 200.022 16.9836C200.071 17.0158 200.11 17.0623 200.132 17.1169C200.154 17.1716 200.159 17.2318 200.146 17.2894C200.133 17.3471 200.103 17.3993 200.06 17.4393C200.016 17.4792 199.961 17.5048 199.903 17.5128ZM186.02 16.7263C185.959 16.7179 185.902 16.6903 185.858 16.6475C185.814 16.6047 185.784 16.549 185.774 16.4884C185.764 16.4278 185.773 16.3655 185.8 16.3105C185.828 16.2556 185.872 16.2108 185.927 16.1827C186.841 15.8663 187.778 15.6217 188.73 15.4512C188.793 15.4568 188.853 15.483 188.899 15.5258C188.946 15.5687 188.978 15.6258 188.989 15.6883C189 15.7508 188.99 15.8152 188.961 15.8716C188.932 15.9281 188.885 15.9734 188.828 16.0005C187.905 16.165 186.995 16.4019 186.109 16.7089C186.078 16.7224 186.045 16.7293 186.011 16.7292L186.02 16.7263ZM194.462 15.882H194.425C193.496 15.7583 192.559 15.7051 191.622 15.723C191.579 15.7355 191.533 15.7379 191.489 15.7299C191.445 15.7218 191.403 15.7036 191.368 15.6767C191.332 15.6498 191.302 15.6148 191.282 15.5747C191.262 15.5346 191.252 15.4903 191.252 15.4454C191.252 15.4005 191.262 15.3562 191.282 15.3161C191.302 15.2759 191.332 15.241 191.368 15.2141C191.403 15.1871 191.445 15.1689 191.489 15.1609C191.533 15.1529 191.579 15.1552 191.622 15.1678C192.589 15.1454 193.556 15.1986 194.514 15.3268C194.574 15.348 194.624 15.388 194.659 15.4407C194.693 15.4933 194.71 15.5558 194.706 15.6186C194.701 15.6814 194.677 15.7412 194.635 15.7887C194.594 15.8362 194.538 15.869 194.477 15.882H194.462Z" fill="var(--fill-0, white)"/>
<path id="Vector_3" d="M191.5 20.5622C191.523 20.5853 191.361 20.8716 191.301 21.2448C191.275 21.3937 191.269 21.5455 191.283 21.696C191.318 22.0749 191.46 22.3699 191.434 22.393C191.408 22.4162 191.124 22.2571 190.748 22.1935C190.598 22.1746 190.447 22.1746 190.297 22.1935C189.918 22.2282 189.623 22.367 189.6 22.341C189.577 22.3149 189.739 22.0344 189.799 21.6584C189.825 21.5094 189.831 21.3577 189.817 21.2072C189.782 20.8283 189.64 20.5332 189.666 20.5101C189.692 20.487 189.976 20.646 190.352 20.7097C190.501 20.7343 190.653 20.7401 190.803 20.727C191.185 20.675 191.474 20.5361 191.5 20.5622Z" fill="var(--fill-0, white)"/>
<path id="Vector_4" d="M189.265 23.3825C189.265 23.4085 189.017 23.4201 188.759 23.5271C188.655 23.5692 188.558 23.6257 188.47 23.6949C188.247 23.8626 188.117 24.068 188.094 24.0593C188.071 24.0506 188.056 23.8134 187.949 23.556C187.907 23.4522 187.851 23.3549 187.782 23.2668C187.611 23.0441 187.408 22.9139 187.414 22.8879C187.42 22.8618 187.663 22.8532 187.92 22.7462C188.024 22.704 188.121 22.6475 188.21 22.5784C188.432 22.4077 188.562 22.2053 188.586 22.2111C188.609 22.2168 188.623 22.4598 188.73 22.7172C188.772 22.821 188.829 22.9183 188.898 23.0065C189.069 23.2263 189.271 23.3564 189.265 23.3825Z" fill="var(--fill-0, white)"/>
<path id="Vector_5" d="M191.187 22.9688C191.204 22.9688 191.187 23.1423 191.216 23.3361C191.231 23.4124 191.256 23.4863 191.291 23.5559C191.375 23.7323 191.496 23.8451 191.488 23.8625C191.479 23.8799 191.314 23.8625 191.123 23.8914C191.047 23.9065 190.973 23.9318 190.903 23.9666C190.727 24.0505 190.614 24.172 190.594 24.1633C190.574 24.1546 190.594 23.9898 190.568 23.7989C190.552 23.7229 190.526 23.6491 190.493 23.579C190.406 23.4026 190.287 23.2898 190.293 23.2696C190.299 23.2493 190.467 23.2696 190.661 23.2435C190.736 23.2272 190.81 23.202 190.88 23.1683C190.986 23.1071 191.088 23.0405 191.187 22.9688Z" fill="var(--fill-0, white)"/>
<path id="Vector_6" d="M98.2443 114.66C98.2443 114.66 96.1387 122.53 97.7034 123.493C99.2682 124.456 108.984 125.338 108.984 125.338C108.984 125.338 102.129 123.716 100.885 120.205C99.6413 116.695 99.1757 110.93 99.1757 110.93L98.2443 114.66Z" fill="var(--fill-0, #3A4256)"/>
<path id="Vector_7" d="M127.264 52.875C127.658 54.7718 127.594 56.9085 126.489 58.4699C125.251 60.2047 123.796 60.4476 120.262 60.1064" stroke="var(--stroke-0, #3A4256)" stroke-width="2.06096" stroke-linecap="round" stroke-linejoin="round"/>
<path id="Vector_8" d="M125.238 46.0391C126.022 48.037 126.595 49.3064 126.974 50.833C126.974 50.833 128.709 51.1048 128.547 52.2787C128.446 53.0016 127.231 52.7645 127.231 52.7645" stroke="var(--stroke-0, #3A4256)" stroke-width="2.06096" stroke-linecap="round" stroke-linejoin="round"/>
<path id="Vector_9" d="M120.262 60.1094C120.346 61.8269 119.972 63.634 121.792 64.7646" stroke="var(--stroke-0, #3A4256)" stroke-width="2.06096" stroke-linecap="round" stroke-linejoin="round"/>
<path id="Vector_10" d="M110.715 65.7969C107.498 66.407 103.064 68.3702 100.068 69.6858C99.6195 69.8824 99.1278 70.1427 98.9976 70.614C98.9415 70.9418 98.9837 71.2788 99.1191 71.5826C99.9463 74.0345 101.173 76.4084 101.566 78.9615C102.043 82.0553 101.928 88.1302 101.257 91.1893C100.195 96.015 99.2319 94.3698 97.8464 98.3282C97.4704 99.3922 96.9787 101.243 97.777 103.105L99.4257 106.684C99.2695 109.865 96.2123 121.488 97.1696 122.998C98.4423 125.022 114.347 125.586 120.91 125.586" stroke="var(--stroke-0, #3A4256)" stroke-width="2.06096" stroke-linecap="round" stroke-linejoin="round"/>
<path id="Vector_11" d="M132.71 81.2342C136.794 81.8617 152.164 81.2342 156.832 77.3655C161.578 73.4448 172.326 58.2273 172.326 58.2273L165.503 52.8203C165.503 52.8203 156.722 64.386 152.372 66.037C147.62 67.8528 130.294 65.1695 126.699 65.2447" stroke="var(--stroke-0, #3A4256)" stroke-width="2.06096" stroke-linecap="round" stroke-linejoin="round"/>
<path id="Vector_12" d="M104.277 124.781C103.063 133.455 100.601 156.679 99.4702 165.362C99.3343 166.406 96.3465 180.08 95.6928 183.503C95.0391 186.926 94.8077 187.447 94.3334 190.899C94.1598 192.177 93.9969 193.456 93.8446 194.736C93.7665 195.427 93.7346 196.243 94.2697 196.682C94.5907 196.899 94.9647 197.024 95.3515 197.043C100.297 197.722 105.266 198.21 110.256 198.507C110.586 198.561 110.925 198.508 111.222 198.353C111.618 198.09 111.685 197.547 111.711 197.072C111.887 193.756 112.72 179.478 112.952 177.295L115.728 151.096C116.136 147.256 118.007 139.571 118.415 135.728" stroke="var(--stroke-0, #3A4256)" stroke-width="2.06096" stroke-linecap="round" stroke-linejoin="round"/>
<path id="Vector_13" d="M137.491 197.618C138.926 197.435 140.351 197.173 141.757 196.834C141.955 196.788 142.149 196.724 142.336 196.643C144.337 195.756 143.637 193.752 143.122 192.153C139.466 180.79 136.993 154.651 134.367 124.109" stroke="var(--stroke-0, #3A4256)" stroke-width="2.06096" stroke-linecap="round" stroke-linejoin="round"/>
<path id="Vector_14" d="M118.414 135.734C122.061 151.987 123.6 170.527 124.199 185.325C124.326 188.471 124.228 193.999 124.508 196.98C124.535 197.253 124.659 197.506 124.857 197.695C125.056 197.883 125.317 197.993 125.59 198.004C129.457 198.16 133.579 198.131 137.495 197.622" stroke="var(--stroke-0, #3A4256)" stroke-width="2.06096" stroke-linecap="round" stroke-linejoin="round"/>
<path id="Vector_15" d="M99.427 70.0312C93.6625 76.3924 90.3247 88.0823 87.0939 96.054C86.3419 97.9016 85.5957 99.8938 86.0237 101.837C86.4287 103.687 87.817 105.139 89.1446 106.486C92.2424 109.623 94.86 111.937 97.9577 115.074" stroke="var(--stroke-0, #3A4256)" stroke-width="2.06096" stroke-linecap="round" stroke-linejoin="round"/>
<path id="Vector_16" d="M123.65 45.7344C123.65 45.7344 130.346 45.9831 130.384 41.2556C130.421 36.5282 127.367 33.6425 123.254 36.0308C122.511 36.4617 121.281 37.5315 117.302 35.9383C113.322 34.3451 109.492 34.8367 107.893 37.8235C106.6 40.2436 101.853 40.1106 103.346 48.3193C104.341 53.7928 107.826 60.443 110.114 60.7756C111.702 61.004 114.163 60.5703 115.56 59.8677C115.9 59.7 116.175 59.4258 116.345 59.087C116.514 58.7482 116.568 58.3633 116.497 57.9911C116.165 56.1638 115.572 51.9192 117.131 51.6936C119.124 51.4045 120.868 52.8039 122.557 51.3091C124.246 49.8142 122.846 48.0215 122.557 47.5734C122.268 47.1252 122.028 45.8298 123.65 45.7344Z" fill="var(--fill-0, #31B133)"/>
<path id="Vector_17" d="M111.876 61.2656C112.272 62.9398 110.719 65.8138 110.719 65.8138C110.719 65.8138 112.344 67.7279 116.885 67.5313C121.426 67.3347 121.802 64.7787 121.802 64.7787C123.457 64.6601 125.172 64.6312 126.719 65.2616C129.748 66.5049 130.37 69.963 130.96 72.7792C132.065 78.0705 133.17 83.3618 134.277 88.6531L137.595 104.527C138.15 107.173 140.886 120.525 139.486 122.02C138.76 122.798 137.728 123.177 136.695 123.483L136.296 123.593C130.688 125.108 126.751 125.785 120.932 125.6" stroke="var(--stroke-0, #3A4256)" stroke-width="2.06096" stroke-linecap="round" stroke-linejoin="round"/>
<path id="Vector_18" d="M95.1385 187.5C94.8747 189.271 95.1561 191.08 95.9454 192.687C96.9969 194.899 98.7754 196.683 100.984 197.741C98.9411 197.555 96.9091 197.266 94.8955 196.874C94.7345 196.865 94.5772 196.822 94.4338 196.748C94.2903 196.674 94.1638 196.571 94.0625 196.446C93.9708 196.254 93.9357 196.039 93.9613 195.827C94.0309 193.398 94.3086 190.98 94.7914 188.599" fill="var(--fill-0, #3A4256)"/>
<path id="Vector_19" d="M99.0529 197.25C97.8352 197.718 97.0282 198.005 96.7997 199.829C96.3369 203.741 96.3225 204.883 98.1794 204.947L105.76 205.207C106.171 205.222 106.575 205.099 106.907 204.857C107.24 204.614 107.48 204.267 107.591 203.871C108.013 202.348 108.413 199.823 107.302 198.522" stroke="var(--stroke-0, #3A4256)" stroke-width="2.06096" stroke-linecap="round" stroke-linejoin="round"/>
<path id="Vector_20" d="M139.634 197.344C140.126 197.821 140.407 197.864 140.829 199.836C141.653 203.688 141.329 204.714 139.472 204.783L132.267 205.055C131.757 205.074 131.257 204.915 130.852 204.604C130.447 204.293 130.164 203.85 130.052 203.352C129.659 201.591 129.239 199.162 130.717 198.084" stroke="var(--stroke-0, #3A4256)" stroke-width="2.06096" stroke-linecap="round" stroke-linejoin="round"/>
<path id="Vector_21" d="M100.681 93.4297C100.681 93.4297 101.589 99.6838 100.927 102.734C100.524 104.58 99.9656 106.389 99.2578 108.141" stroke="var(--stroke-0, #3A4256)" stroke-width="2.06096" stroke-linecap="round" stroke-linejoin="round"/>
<path id="Vector_22" d="M173.122 48.128C173.122 48.128 177.643 47.917 177.46 51.0194C177.353 52.9683 171.965 57.8866 171.965 57.8866" stroke="var(--stroke-0, #3A4256)" stroke-width="2.06096" stroke-linecap="round" stroke-linejoin="round"/>
<path id="Vector_23" d="M177.255 50.3482C177.255 50.3482 176.911 50.2296 175.924 51.2159C175.467 51.677 175.049 52.1741 174.672 52.7026" stroke="var(--stroke-0, #3A4256)" stroke-width="2.06096" stroke-linecap="round" stroke-linejoin="round"/>
<path id="Vector_24" d="M176.885 49.4844C176.885 49.4844 175.916 49.4844 174.93 50.4794C174.475 50.9351 174.071 51.4395 173.727 51.9834" stroke="var(--stroke-0, #3A4256)" stroke-width="2.06096" stroke-linecap="round" stroke-linejoin="round"/>
<path id="Vector_25" d="M172.575 49.171C172.575 49.171 174.507 45.8517 174.168 43.9665C173.995 42.9949 172.766 42.6075 171.982 45.2849C171.198 47.9624 170.142 49.3676 169.315 50.3189C167.351 52.5887 165.772 53.6874 166.113 53.2971" stroke="var(--stroke-0, #3A4256)" stroke-width="2.06096" stroke-linecap="round" stroke-linejoin="round"/>
<path id="Vector_26" d="M175.955 48.7109C175.164 48.8071 174.431 49.1776 173.884 49.758C173.45 50.1817 173.083 50.6694 172.797 51.2042" stroke="var(--stroke-0, #3A4256)" stroke-width="2.06096" stroke-linecap="round" stroke-linejoin="round"/>
<path id="Vector_27" d="M125.285 55.8281C125.285 55.8281 125.681 56.6235 126.731 56.3083C126.863 56.2758 126.987 56.2164 127.094 56.1337C127.202 56.0511 127.291 55.947 127.356 55.8281" stroke="var(--stroke-0, #3A4256)" stroke-width="2.06096" stroke-linecap="round" stroke-linejoin="round"/>
<path id="Vector_28" d="M123.922 51.0272C123.922 51.0272 124.142 50.4718 124.5 50.3243C124.805 50.2044 125.144 50.2044 125.449 50.3243" stroke="var(--stroke-0, #3A4256)" stroke-width="2.06096" stroke-linecap="round" stroke-linejoin="round"/>
<path id="Vector_29" d="M182.195 41.818L196.695 22.3906L201.479 25.5278L184.885 43.7611L182.195 41.818Z" fill="var(--fill-0, white)"/>
<path id="Vector_30" d="M200.211 43.0114L180.777 28.5168L183.916 23.7344L202.155 40.3224L200.211 43.0114Z" fill="var(--fill-0, white)"/>
</g>
</svg>
